<?xml version="1.0" encoding="UTF-8"?><svg id="Livello_1" xmlns="http://www.w3.org/2000/svg" viewBox="0 0 566.93 198.43"><defs><style>.cls-1{fill:#00d200;}.cls-2,.cls-3{fill:#fff;}.cls-4{fill:#0b111e;}.cls-3{opacity:.2;}</style></defs><rect class="cls-4" width="569.47" height="198.43"/><g><path class="cls-1" d="m281.4,111.1c.85,0,.85-.01.86-.85,0-1.18,0-2.35,0-3.53q0-1.08-1.09-1.08c-.06,0-25.75.01-25.96,0-.45-.03-.66.16-.65.63.01,1.39,0,2.77,0,4.16,0,.61.06.64.69.67.21,0,22.86,0,26.14,0M76.68,44.83l35.82,8.67c4.39,1.06,7.48,4.99,7.48,9.51v58.31c0,3.29-1.66,6.36-4.41,8.17l-34.17,22.49c-3.52,2.31-8.07,2.31-11.59,0l-34.17-22.49c-2.75-1.81-4.41-4.88-4.41-8.17v-58.31c0-4.52,3.09-8.45,7.48-9.51l35.82-8.67c.7-.17,1.43-.17,2.12,0"/><path class="cls-2" d="m88.56,129.87c.84,0,.85-.01.86-.85,0-1.17,0-2.35,0-3.52q0-1.07-1.09-1.08h-25.9c-.45-.03-.66.16-.65.63.01,1.38,0,2.77,0,4.15,0,.61.06.64.69.67.21,0,22.8,0,26.08,0m-12.97-42.91c.53-.55,14.26-14.6,17.23-17.68.5-.52,1-.76,1.73-.74,1.77.05,3.55.02,5.33.02.36,0,.77-.05.93.38.15.43.04.8-.3,1.15-1.91,1.92-18.88,19.3-20.93,21.33-.66.65-.97,1.31-.96,2.28.05,6.08.03,18.67.02,18.88-.03.62-.19.82-.81.83-1.51.03-3.01.02-4.52,0-.55,0-.74-.21-.83-.76-.04-.3-.04-13.25-.02-19.42,0-.62-.17-1.06-.61-1.51-2.78-2.8-21.26-21.71-21.32-21.83-.15-.27-.19-.63-.14-.92.05-.35.4-.41.72-.41.84,0,1.69,0,2.53,0,1.05,0,2.11.02,3.16,0,.52-.02.91.15,1.27.53,1.65,1.71,14.44,14.8,16.91,17.31.19.19.39.36.63.57"/><path class="cls-2" d="m333.15,94.9c3.96-7.73,7.87-15.37,11.86-23.16,3.91,7.78,7.75,15.43,11.63,23.16h-23.49Zm37.96,15.03c-.8-1.55-20.19-39.5-21.9-42.92-.27-.54-.59-.75-1.19-.72h-5.88c-.71-.05-1.08.22-1.39.85-1.35,2.73-19.85,39.13-21.81,42.96-.32.62-.1,1.05.59,1.15l4.43.03c.6.02.91-.17,1.18-.72,1.47-3,3.01-5.98,4.47-8.98.3-.62.64-.88,1.36-.88,9.29.03,18.59.02,27.88,0,.66,0,1.02.2,1.32.8,1.54,3.1,3.14,6.18,4.69,9.28.18.35.37.49.75.49,1.57-.01,3.14,0,4.71,0,.98-.01,1.23-.47.79-1.33m126.41-15.03c3.96-7.73,7.87-15.37,11.86-23.16,3.91,7.78,7.75,15.43,11.63,23.16h-23.49Zm37.96,15.03c-.8-1.55-20.19-39.5-21.9-42.92-.27-.54-.59-.75-1.19-.72h-5.88c-.71-.05-1.08.22-1.39.85-1.35,2.73-19.85,39.13-21.81,42.96-.32.62-.1,1.05.59,1.15l4.43.03c.6.02.91-.17,1.18-.72,1.47-3,3-5.98,4.47-8.98.3-.62.64-.88,1.36-.88,9.3.03,18.59.02,27.88,0,.66,0,1.02.2,1.32.8,1.54,3.1,3.14,6.18,4.69,9.28.18.35.37.49.75.49,1.57-.01,3.14,0,4.71,0,.98-.01,1.23-.47.79-1.33m-125.45-.37c0,1.64.07,1.71,1.74,1.71,6.82,0,29.93,0,34.67,0,1.22,0,1.4-.19,1.41-1.42,0-1.06,0-2.11,0-3.17,0-1.32-.11-1.42-1.46-1.42h-29.24c-1.32,0-1.16.16-1.16-1.15,0-12.04,0-24.08,0-36.12,0-.24,0-.48,0-.72-.04-.77-.21-.95-.99-.95-1.09-.01-2.17,0-3.26,0-1.71,0-1.72,0-1.72,1.7,0,6.91,0,34.61,0,41.55m-159.19-59.4c-.36-.38-.75-.54-1.27-.53-1.06.03-4.86,0-5.7.01-.32,0-.67.06-.72.41-.04.3-.01.66.14.93.07.12,18.59,19.07,21.37,21.88.44.44.61.89.61,1.51-.02,6.19-.02,19.17.02,19.46.08.55.28.76.83.76,1.51.02,3.02.02,4.53,0,.63-.01.78-.22.81-.83.01-.21.03-12.83-.02-18.92,0-.97.3-1.63.97-2.28,2.05-2.04,19.07-19.46,20.98-21.39.34-.34.45-.72.3-1.15-.16-.43-.57-.38-.93-.38-1.78,0-3.56.03-5.34-.02-.73-.02-1.24.22-1.74.74-2.97,3.09-16.74,17.17-17.27,17.72-.23-.21-15.92-16.21-17.57-17.93m-43.68,45.01h-19.36c-.21,0-.42,0-.64,0-.73-.03-.9-.18-.91-.92-.01-1.36,0-2.72,0-4.07v-.18c.04-.54.23-.75.76-.82.24-.03.48-.01.72-.01,8,0,16,0,24,0h.27c1.02.02,1.31.29,1.31,1.28,0,1.27.01,2.54-.01,3.8-.05,2.44-.13,4.88-.55,7.29-.36,2.08-1.12,3.99-2.49,5.64-1.56,1.88-3.62,2.85-5.93,3.39-2.24.52-4.53.68-6.82.69-5.52.04-11.05.05-16.57,0-3.19-.03-6.38-.22-9.5-1.04-4.94-1.3-7.82-4.56-8.89-9.45-.55-2.51-.55-5.09-.58-7.65-.02-1.96-.13-3.92-.12-5.88.02-4.13.2-8.25,1.52-12.23.61-1.83,1.49-3.49,2.82-4.89,1.03-1.09,2.34-1.8,3.71-2.36,2.25-.92,4.61-1.36,7.01-1.62,4.03-.43,8.07-.27,12.12-.29,2.93-.02,5.86-.05,8.78,0,3.09.06,6.13.41,8.98,1.73,3.36,1.55,5.42,4.15,6.13,7.77.21,1.09.29,2.21.34,3.32.04.78-.17.93-.97.94-1.3,0-2.6.01-3.89,0-.83,0-.84-.08-.97-.94-.13-.89-.28-1.79-.52-2.65-.42-1.49-1.44-2.5-2.85-3.07-1.35-.54-2.76-.91-4.21-.95-3.07-.09-6.15-.14-9.23-.17-3.14-.03-6.28-.05-9.42,0-2.2.04-4.4.16-6.55.7-.61.15-1.22.34-1.82.51-1.92.54-3.12,1.86-3.91,3.62-.68,1.5-1.01,3.11-1.06,4.73-.11,3.89-.21,7.78-.17,11.67.02,2.31.27,4.62.86,6.89.55,2.13,1.76,3.62,3.89,4.24,1.24.36,2.5.71,3.77.85,1.7.19,3.43.22,5.15.23,5.95.02,11.89.01,17.84-.03,1.39,0,2.75-.26,4.08-.71,1.53-.52,2.56-1.52,3.08-3.06.54-1.62.76-3.28.79-4.98,0-.41,0-.83,0-1.32m320.39,58.5h-2.29l2.29-5.72-6.14-14.86h2.29l4.91,11.86h.14l4.66-11.86h2.29l-8.14,20.57Zm-11.97-5.72c-1.07,0-1.95-.35-2.66-1.06-.71-.7-1.06-1.59-1.06-2.66v-9.14h-2.29v-2h2.29l.29-4h1.86v4h3.86v2h-3.86v9.14c0,.5.16.9.49,1.23.32.32.73.49,1.23.49h2.14v2h-2.29Zm-11.4,0h-2.14v-14.86h2.14v14.86Zm-2.16-18c-.3-.29-.44-.64-.44-1.06s.15-.77.44-1.07c.29-.29.65-.44,1.07-.44s.77.15,1.06.44c.29.3.43.65.43,1.07s-.14.75-.43,1.04c-.29.29-.64.44-1.06.44s-.78-.14-1.07-.43m-12.81,18v-14.86h1.71l.29,2h.14c.42-.7.95-1.21,1.6-1.53.65-.31,1.45-.47,2.4-.47h1.57v2h-1.57c-1.14,0-2.1.35-2.86,1.06-.76.7-1.14,1.59-1.14,2.66v9.14h-2.14Zm-15.96-.44c-.85-.49-1.51-1.19-2-2.1-.49-.91-.73-1.97-.73-3.17v-9.14h2.14v9.14c0,1.26.34,2.24,1.03,2.94.69.7,1.58,1.06,2.69,1.06.74,0,1.42-.18,2.03-.54.61-.36,1.09-.85,1.44-1.47.35-.62.53-1.28.53-1.99v-9.14h2.14v14.86h-1.71l-.29-2h-.14c-.48.8-1.09,1.38-1.84,1.74-.75.36-1.57.54-2.44.54-1.05,0-1.99-.24-2.84-.73m-17.7-.17c-1.03-.6-1.83-1.48-2.41-2.63-.58-1.15-.87-2.55-.87-4.19s.29-3.03.87-4.19c.58-1.15,1.39-2.03,2.41-2.63,1.03-.6,2.22-.9,3.57-.9,1.45,0,2.71.36,3.79,1.07,1.08.71,1.86,1.74,2.36,3.07h-2.29c-.86-1.43-2.14-2.14-3.86-2.14-1.41,0-2.55.5-3.41,1.5-.87,1-1.3,2.4-1.3,4.21s.43,3.21,1.3,4.21c.87,1,2.01,1.5,3.41,1.5,1.71,0,3-.71,3.86-2.14h2.29c-.5,1.33-1.28,2.36-2.36,3.07-1.08.71-2.34,1.07-3.79,1.07-1.35,0-2.54-.3-3.57-.9m-10.71-8.1c-.11-1.26-.56-2.31-1.33-3.16-.77-.85-1.84-1.27-3.21-1.27s-2.37.4-3.11,1.2-1.2,1.88-1.37,3.23h9.03Zm2.03,2h-11.11c.11,1.62.59,2.86,1.41,3.71.83.86,1.92,1.29,3.27,1.29,1.71,0,3-.71,3.86-2.14h2.29c-.5,1.33-1.28,2.36-2.36,3.07-1.08.71-2.34,1.07-3.79,1.07-1.35,0-2.54-.3-3.57-.9-1.03-.6-1.83-1.48-2.41-2.63-.58-1.15-.87-2.55-.87-4.19s.29-3.01.86-4.17c.57-1.16,1.37-2.04,2.39-2.64,1.02-.6,2.18-.9,3.47-.9,1.45,0,2.68.35,3.69,1.06,1.01.7,1.77,1.6,2.27,2.67.5,1.08.76,2.17.76,3.27,0,.51-.05.99-.14,1.43m-30.53,5.54c-1.27-.97-2.08-2.3-2.44-3.97h2.43c.36,1.07.96,1.88,1.79,2.44.83.56,1.85.84,3.07.84,1.58,0,2.79-.33,3.61-1,.83-.67,1.24-1.52,1.24-2.57,0-.72-.22-1.3-.64-1.74s-.96-.78-1.6-1.01c-.64-.24-1.53-.5-2.67-.79-1.43-.34-2.58-.7-3.46-1.06-.88-.36-1.63-.93-2.26-1.7-.63-.77-.94-1.81-.94-3.13,0-1.01.27-1.93.8-2.76.53-.83,1.3-1.48,2.32-1.96,1.01-.48,2.21-.71,3.6-.71,1.81,0,3.31.42,4.51,1.26,1.2.84,1.98,2.04,2.34,3.6h-2.43c-.3-.84-.83-1.5-1.57-1.98-.74-.49-1.7-.73-2.86-.73-1.37,0-2.43.3-3.17.91-.74.61-1.12,1.4-1.12,2.37,0,.78.22,1.41.67,1.89.45.48,1,.84,1.67,1.09.67.25,1.59.52,2.77.83,1.39.34,2.51.69,3.37,1.04.86.35,1.59.89,2.18,1.63.6.73.9,1.72.9,2.96,0,1.03-.29,1.98-.86,2.84-.57.87-1.41,1.56-2.51,2.09-1.11.52-2.41.79-3.91.79-1.96,0-3.58-.49-4.84-1.46m-22.53,1.17v-14.86h1.71l.29,2h.14c.42-.7.95-1.21,1.6-1.53.65-.31,1.45-.47,2.4-.47h1.57v2h-1.57c-1.14,0-2.1.35-2.86,1.06-.76.7-1.14,1.59-1.14,2.66v9.14h-2.14Zm-8.14-8.71c-.11-1.26-.56-2.31-1.33-3.16-.77-.85-1.84-1.27-3.21-1.27s-2.37.4-3.11,1.2c-.74.8-1.2,1.88-1.37,3.23h9.03Zm2.03,2h-11.11c.11,1.62.59,2.86,1.41,3.71.83.86,1.92,1.29,3.27,1.29,1.71,0,3-.71,3.86-2.14h2.29c-.5,1.33-1.28,2.36-2.36,3.07-1.08.71-2.34,1.07-3.79,1.07-1.35,0-2.54-.3-3.57-.9-1.03-.6-1.83-1.48-2.41-2.63-.58-1.15-.87-2.55-.87-4.19s.29-3.01.86-4.17c.57-1.16,1.37-2.04,2.39-2.64,1.02-.6,2.18-.9,3.47-.9,1.45,0,2.68.35,3.69,1.06,1.01.7,1.77,1.6,2.27,2.67.5,1.08.76,2.17.76,3.27,0,.51-.05.99-.14,1.43m-21.93,3.5c.83-1,1.24-2.4,1.24-4.21s-.41-3.24-1.24-4.23c-.83-.99-1.94-1.49-3.33-1.49s-2.5.5-3.33,1.49c-.83.99-1.24,2.4-1.24,4.23s.41,3.21,1.24,4.21c.83,1,1.94,1.5,3.33,1.5s2.5-.5,3.33-1.5m-5.89,2.9c-.83-.4-1.5-.96-2.01-1.69h-.14l-.29,2h-1.71v-20h2.14v7h.14c.51-.67,1.17-1.19,1.97-1.57.8-.38,1.71-.57,2.74-.57,1.26,0,2.37.3,3.33.9.96.6,1.72,1.48,2.27,2.64.55,1.16.83,2.55.83,4.17s-.28,3.01-.83,4.17c-.55,1.16-1.31,2.04-2.27,2.64-.96.6-2.07.9-3.33.9-1.07,0-2.01-.2-2.84-.6m-17.27,6.03h-2.29l2.29-5.72-6.14-14.86h2.29l4.91,11.86h.14l4.66-11.86h2.29l-8.14,20.57Zm-22.1-6.62c-1.36-.79-2.42-1.96-3.17-3.5-.75-1.54-1.13-3.41-1.13-5.6s.38-4.06,1.13-5.6c.75-1.54,1.81-2.71,3.17-3.5,1.36-.79,2.93-1.19,4.7-1.19,1.94,0,3.61.47,5,1.4,1.39.93,2.44,2.32,3.14,4.17h-2.57c-.55-1.18-1.29-2.05-2.21-2.6-.92-.55-2.04-.83-3.36-.83s-2.44.31-3.43.94c-.99.63-1.76,1.55-2.31,2.77-.55,1.22-.83,2.7-.83,4.43s.28,3.21.83,4.43c.55,1.22,1.32,2.14,2.31,2.77.99.63,2.13.94,3.43.94s2.43-.28,3.36-.83c.92-.55,1.66-1.42,2.21-2.6h2.57c-.71,1.85-1.75,3.24-3.14,4.17-1.39.93-3.06,1.4-5,1.4-1.77,0-3.34-.4-4.7-1.19"/><path class="cls-3" d="m75.59,44.71c-.14,0-.28,0-.42.02-.21.02-.42.05-.62.1l-35.82,8.67c-4.39,1.06-7.48,4.99-7.48,9.51v58.31c0,3.29,1.66,6.36,4.41,8.18l34.17,22.49c1.75,1.15,3.76,1.73,5.77,1.73v-23.84h-4.01c-4.94,0-9.02,0-9.11,0-.63-.03-.69-.06-.69-.67-.02-1.38,0-2.77,0-4.15,0-.44.18-.63.57-.63.03,0,.05,0,.08,0h13.17v-11h-.03c-.75,0-1.51,0-2.26-.02-.55,0-.74-.21-.82-.76-.04-.3-.04-13.25-.02-19.42,0-.62-.17-1.06-.61-1.51-2.78-2.8-21.26-21.71-21.32-21.83-.15-.27-.19-.63-.14-.92.05-.35.4-.41.72-.41.84,0,1.69,0,2.53,0,.62,0,1.24,0,1.86,0,.43,0,.87,0,1.3-.02.02,0,.05,0,.07,0,.49,0,.85.17,1.2.53,1.65,1.71,14.44,14.8,16.91,17.31.19.19.39.36.63.57,0,0,0,0,0,0v-42.26Z"/></g></svg>