<svg width="243" height="78" viewBox="0 0 243 78" fill="none" xmlns="http://www.w3.org/2000/svg">
<g filter="url(#filter0_dd_51655_5115)">
<g clip-path="url(#clip0_51655_5115)">
<rect x="11" y="7" width="221" height="56" rx="16" fill="#1976D2"/>
<path d="M32.5 45C32.1 45 31.75 44.85 31.45 44.55C31.15 44.25 31 43.9 31 43.5V26.5C31 26.1 31.15 25.75 31.45 25.45C31.75 25.15 32.1 25 32.5 25H45.5C45.9 25 46.25 25.15 46.55 25.45C46.85 25.75 47 26.1 47 26.5V43.5C47 43.9 46.85 44.25 46.55 44.55C46.25 44.85 45.9 45 45.5 45H32.5ZM32.5 43.5H45.5V26.5H44V33.15L41.575 31.75L39.15 33.15V26.5H32.5V43.5ZM32.5 43.5V26.5V43.5ZM39.15 33.15L41.575 31.75L44 33.15L41.575 31.75L39.15 33.15V33.15Z" fill="#E8DEF8"/>
<path d="M67.2998 40H65.1738L65.1875 38.6396H67.2998C67.915 38.6396 68.43 38.5052 68.8447 38.2363C69.264 37.9674 69.5785 37.5824 69.7881 37.0811C70.0023 36.5798 70.1094 35.9827 70.1094 35.29V34.75C70.1094 34.2122 70.0479 33.736 69.9248 33.3213C69.8063 32.9066 69.6286 32.5579 69.3916 32.2754C69.1592 31.9928 68.8721 31.7786 68.5303 31.6328C68.193 31.487 67.8034 31.4141 67.3613 31.4141H65.1328V30.0469H67.3613C68.0221 30.0469 68.626 30.1585 69.1729 30.3818C69.7197 30.6006 70.1914 30.9173 70.5879 31.332C70.9889 31.7467 71.2965 32.2435 71.5107 32.8223C71.7249 33.401 71.832 34.0482 71.832 34.7637V35.29C71.832 36.0055 71.7249 36.6527 71.5107 37.2314C71.2965 37.8102 70.9889 38.307 70.5879 38.7217C70.1868 39.1318 69.7083 39.4486 69.1523 39.6719C68.6009 39.8906 67.9834 40 67.2998 40ZM66.124 30.0469V40H64.4082V30.0469H66.124ZM73.1762 36.3838V36.2266C73.1762 35.6934 73.2536 35.1989 73.4086 34.7432C73.5635 34.2829 73.7868 33.8841 74.0785 33.5469C74.3747 33.2051 74.7348 32.9408 75.1586 32.7539C75.587 32.5625 76.0701 32.4668 76.6078 32.4668C77.1501 32.4668 77.6332 32.5625 78.057 32.7539C78.4854 32.9408 78.8477 33.2051 79.1439 33.5469C79.4402 33.8841 79.6658 34.2829 79.8207 34.7432C79.9757 35.1989 80.0531 35.6934 80.0531 36.2266V36.3838C80.0531 36.917 79.9757 37.4115 79.8207 37.8672C79.6658 38.3229 79.4402 38.7217 79.1439 39.0635C78.8477 39.4007 78.4877 39.665 78.0639 39.8564C77.64 40.0433 77.1592 40.1367 76.6215 40.1367C76.0792 40.1367 75.5938 40.0433 75.1654 39.8564C74.7416 39.665 74.3816 39.4007 74.0854 39.0635C73.7891 38.7217 73.5635 38.3229 73.4086 37.8672C73.2536 37.4115 73.1762 36.917 73.1762 36.3838ZM74.8236 36.2266V36.3838C74.8236 36.7165 74.8578 37.0309 74.9262 37.3271C74.9945 37.6234 75.1016 37.8831 75.2475 38.1064C75.3933 38.3298 75.5801 38.5052 75.808 38.6328C76.0359 38.7604 76.307 38.8242 76.6215 38.8242C76.9268 38.8242 77.1911 38.7604 77.4145 38.6328C77.6423 38.5052 77.8292 38.3298 77.975 38.1064C78.1208 37.8831 78.2279 37.6234 78.2963 37.3271C78.3692 37.0309 78.4057 36.7165 78.4057 36.3838V36.2266C78.4057 35.8984 78.3692 35.5885 78.2963 35.2969C78.2279 35.0007 78.1186 34.7386 77.9682 34.5107C77.8223 34.2829 77.6355 34.1051 77.4076 33.9775C77.1843 33.8454 76.9177 33.7793 76.6078 33.7793C76.2979 33.7793 76.029 33.8454 75.8012 33.9775C75.5779 34.1051 75.3933 34.2829 75.2475 34.5107C75.1016 34.7386 74.9945 35.0007 74.9262 35.2969C74.8578 35.5885 74.8236 35.8984 74.8236 36.2266ZM83.5438 38.3594L85.2527 32.6035H86.3055L86.0184 34.3262L84.2957 40H83.3523L83.5438 38.3594ZM82.5389 32.6035L83.8719 38.3867L83.9813 40H82.9285L80.9256 32.6035H82.5389ZM87.9051 38.3184L89.1971 32.6035H90.8035L88.8074 40H87.7547L87.9051 38.3184ZM86.4832 32.6035L88.1717 38.291L88.3836 40H87.4402L85.6971 34.3193L85.41 32.6035H86.4832ZM93.6584 34.1826V40H92.0109V32.6035H93.5627L93.6584 34.1826ZM93.3645 36.0283L92.8312 36.0215C92.8358 35.4974 92.9087 35.0166 93.05 34.5791C93.1958 34.1416 93.3964 33.7656 93.6516 33.4512C93.9113 33.1367 94.2212 32.8952 94.5812 32.7266C94.9413 32.5534 95.3423 32.4668 95.7844 32.4668C96.1398 32.4668 96.4611 32.5169 96.7482 32.6172C97.0399 32.7129 97.2883 32.8701 97.4934 33.0889C97.703 33.3076 97.8625 33.5924 97.9719 33.9434C98.0812 34.2897 98.1359 34.7158 98.1359 35.2217V40H96.4816V35.2148C96.4816 34.8594 96.4292 34.5791 96.3244 34.374C96.2242 34.1644 96.076 34.0163 95.8801 33.9297C95.6887 33.8385 95.4494 33.793 95.1623 33.793C94.8798 33.793 94.6268 33.8522 94.4035 33.9707C94.1802 34.0892 93.9911 34.251 93.8361 34.4561C93.6857 34.6611 93.5695 34.8981 93.4875 35.167C93.4055 35.4359 93.3645 35.723 93.3645 36.0283ZM101.681 29.5V40H100.027V29.5H101.681ZM103.271 36.3838V36.2266C103.271 35.6934 103.349 35.1989 103.504 34.7432C103.659 34.2829 103.882 33.8841 104.174 33.5469C104.47 33.2051 104.83 32.9408 105.254 32.7539C105.682 32.5625 106.165 32.4668 106.703 32.4668C107.245 32.4668 107.729 32.5625 108.152 32.7539C108.581 32.9408 108.943 33.2051 109.239 33.5469C109.535 33.8841 109.761 34.2829 109.916 34.7432C110.071 35.1989 110.148 35.6934 110.148 36.2266V36.3838C110.148 36.917 110.071 37.4115 109.916 37.8672C109.761 38.3229 109.535 38.7217 109.239 39.0635C108.943 39.4007 108.583 39.665 108.159 39.8564C107.735 40.0433 107.255 40.1367 106.717 40.1367C106.174 40.1367 105.689 40.0433 105.261 39.8564C104.837 39.665 104.477 39.4007 104.181 39.0635C103.884 38.7217 103.659 38.3229 103.504 37.8672C103.349 37.4115 103.271 36.917 103.271 36.3838ZM104.919 36.2266V36.3838C104.919 36.7165 104.953 37.0309 105.021 37.3271C105.09 37.6234 105.197 37.8831 105.343 38.1064C105.489 38.3298 105.675 38.5052 105.903 38.6328C106.131 38.7604 106.402 38.8242 106.717 38.8242C107.022 38.8242 107.286 38.7604 107.51 38.6328C107.738 38.5052 107.924 38.3298 108.07 38.1064C108.216 37.8831 108.323 37.6234 108.392 37.3271C108.465 37.0309 108.501 36.7165 108.501 36.3838V36.2266C108.501 35.8984 108.465 35.5885 108.392 35.2969C108.323 35.0007 108.214 34.7386 108.063 34.5107C107.918 34.2829 107.731 34.1051 107.503 33.9775C107.28 33.8454 107.013 33.7793 106.703 33.7793C106.393 33.7793 106.124 33.8454 105.896 33.9775C105.673 34.1051 105.489 34.2829 105.343 34.5107C105.197 34.7386 105.09 35.0007 105.021 35.2969C104.953 35.5885 104.919 35.8984 104.919 36.2266ZM115.799 38.5166V34.9893C115.799 34.7249 115.751 34.4971 115.656 34.3057C115.56 34.1143 115.414 33.9661 115.218 33.8613C115.027 33.7565 114.785 33.7041 114.494 33.7041C114.225 33.7041 113.992 33.7497 113.796 33.8408C113.6 33.932 113.448 34.055 113.338 34.21C113.229 34.3649 113.174 34.5404 113.174 34.7363H111.534C111.534 34.4447 111.604 34.1621 111.746 33.8887C111.887 33.6152 112.092 33.3714 112.361 33.1572C112.63 32.943 112.951 32.7744 113.325 32.6514C113.698 32.5283 114.118 32.4668 114.582 32.4668C115.138 32.4668 115.631 32.5602 116.059 32.7471C116.492 32.9339 116.831 33.2165 117.078 33.5947C117.328 33.9684 117.454 34.4378 117.454 35.0029V38.291C117.454 38.6283 117.476 38.9313 117.522 39.2002C117.572 39.4645 117.643 39.6947 117.734 39.8906V40H116.045C115.968 39.8223 115.906 39.5967 115.861 39.3232C115.82 39.0452 115.799 38.7764 115.799 38.5166ZM116.038 35.502L116.052 36.5205H114.87C114.564 36.5205 114.295 36.5501 114.063 36.6094C113.83 36.6641 113.637 36.7461 113.482 36.8555C113.327 36.9648 113.211 37.097 113.133 37.252C113.056 37.4069 113.017 37.5824 113.017 37.7783C113.017 37.9743 113.063 38.1543 113.154 38.3184C113.245 38.4779 113.377 38.6032 113.55 38.6943C113.728 38.7855 113.942 38.8311 114.193 38.8311C114.53 38.8311 114.824 38.7627 115.075 38.626C115.33 38.4847 115.53 38.3138 115.676 38.1133C115.822 37.9082 115.899 37.7145 115.909 37.5322L116.442 38.2637C116.387 38.4505 116.294 38.651 116.162 38.8652C116.029 39.0794 115.856 39.2845 115.642 39.4805C115.432 39.6719 115.179 39.8291 114.883 39.9521C114.592 40.0752 114.254 40.1367 113.871 40.1367C113.388 40.1367 112.958 40.041 112.579 39.8496C112.201 39.6536 111.905 39.3916 111.691 39.0635C111.477 38.7308 111.37 38.3548 111.37 37.9355C111.37 37.5436 111.442 37.1973 111.588 36.8965C111.739 36.5911 111.957 36.3359 112.245 36.1309C112.536 35.9258 112.892 35.7708 113.311 35.666C113.73 35.5566 114.209 35.502 114.746 35.502H116.038ZM123.788 38.4688V29.5H125.442V40H123.945L123.788 38.4688ZM118.975 36.3838V36.2402C118.975 35.6797 119.041 35.1693 119.174 34.709C119.306 34.2441 119.497 33.8454 119.748 33.5127C119.999 33.1755 120.304 32.918 120.664 32.7402C121.024 32.5579 121.429 32.4668 121.881 32.4668C122.327 32.4668 122.719 32.5534 123.056 32.7266C123.394 32.8997 123.681 33.1481 123.918 33.4717C124.155 33.7907 124.344 34.1735 124.485 34.6201C124.626 35.0622 124.727 35.5544 124.786 36.0967V36.5547C124.727 37.0833 124.626 37.5664 124.485 38.0039C124.344 38.4414 124.155 38.8197 123.918 39.1387C123.681 39.4577 123.391 39.7038 123.05 39.877C122.712 40.0501 122.318 40.1367 121.867 40.1367C121.42 40.1367 121.017 40.0433 120.657 39.8564C120.302 39.6696 119.999 39.4076 119.748 39.0703C119.497 38.7331 119.306 38.3366 119.174 37.8809C119.041 37.4206 118.975 36.9215 118.975 36.3838ZM120.623 36.2402V36.3838C120.623 36.721 120.652 37.0355 120.712 37.3271C120.776 37.6188 120.874 37.8763 121.006 38.0996C121.138 38.3184 121.309 38.4915 121.518 38.6191C121.733 38.7422 121.988 38.8037 122.284 38.8037C122.658 38.8037 122.965 38.7217 123.207 38.5576C123.448 38.3936 123.638 38.1725 123.774 37.8945C123.915 37.612 124.011 37.2975 124.061 36.9512V35.7139C124.034 35.445 123.977 35.1943 123.89 34.9619C123.808 34.7295 123.697 34.5267 123.555 34.3535C123.414 34.1758 123.239 34.0391 123.029 33.9434C122.824 33.8431 122.58 33.793 122.298 33.793C121.997 33.793 121.742 33.8568 121.532 33.9844C121.322 34.112 121.149 34.2874 121.013 34.5107C120.88 34.734 120.782 34.9938 120.719 35.29C120.655 35.5863 120.623 35.903 120.623 36.2402ZM134.782 30.0469V40H133.08V30.0469H134.782ZM137.906 30.0469V31.4141H129.983V30.0469H137.906ZM140.781 29.5V40H139.141V29.5H140.781ZM140.494 36.0283L139.961 36.0215C139.965 35.5111 140.036 35.0394 140.173 34.6064C140.314 34.1735 140.51 33.7975 140.761 33.4785C141.016 33.1549 141.321 32.9066 141.677 32.7334C142.032 32.5557 142.426 32.4668 142.859 32.4668C143.224 32.4668 143.552 32.5169 143.844 32.6172C144.14 32.7174 144.395 32.8792 144.609 33.1025C144.824 33.3213 144.985 33.6084 145.095 33.9639C145.209 34.3148 145.266 34.7432 145.266 35.249V40H143.611V35.2354C143.611 34.8799 143.559 34.5973 143.454 34.3877C143.354 34.1781 143.206 34.0277 143.01 33.9365C142.814 33.8408 142.575 33.793 142.292 33.793C141.996 33.793 141.734 33.8522 141.506 33.9707C141.283 34.0892 141.096 34.251 140.945 34.4561C140.795 34.6611 140.681 34.8981 140.604 35.167C140.531 35.4359 140.494 35.723 140.494 36.0283ZM150.294 40.1367C149.747 40.1367 149.253 40.0479 148.811 39.8701C148.373 39.6878 148 39.4349 147.69 39.1113C147.385 38.7878 147.15 38.4072 146.986 37.9697C146.822 37.5322 146.74 37.0605 146.74 36.5547V36.2812C146.74 35.7025 146.824 35.1784 146.993 34.709C147.161 34.2396 147.396 33.8385 147.697 33.5059C147.997 33.1686 148.353 32.9111 148.763 32.7334C149.173 32.5557 149.618 32.4668 150.096 32.4668C150.625 32.4668 151.087 32.5557 151.484 32.7334C151.88 32.9111 152.208 33.1618 152.468 33.4854C152.732 33.8044 152.928 34.1849 153.056 34.627C153.188 35.069 153.254 35.5566 153.254 36.0898V36.7939H147.539V35.6113H151.627V35.4814C151.618 35.1852 151.559 34.9072 151.45 34.6475C151.345 34.3877 151.183 34.1781 150.964 34.0186C150.746 33.859 150.454 33.7793 150.089 33.7793C149.816 33.7793 149.572 33.8385 149.358 33.957C149.148 34.071 148.973 34.2373 148.831 34.4561C148.69 34.6748 148.581 34.9391 148.503 35.249C148.43 35.5544 148.394 35.8984 148.394 36.2812V36.5547C148.394 36.8783 148.437 37.179 148.524 37.457C148.615 37.7305 148.747 37.9697 148.92 38.1748C149.093 38.3799 149.303 38.5417 149.549 38.6602C149.795 38.7741 150.076 38.8311 150.39 38.8311C150.787 38.8311 151.14 38.7513 151.45 38.5918C151.76 38.4323 152.028 38.2067 152.256 37.915L153.124 38.7559C152.965 38.9883 152.758 39.2116 152.502 39.4258C152.247 39.6354 151.935 39.8063 151.566 39.9385C151.201 40.0706 150.777 40.1367 150.294 40.1367ZM158.789 37.9971C158.789 37.833 158.748 37.6849 158.666 37.5527C158.584 37.416 158.427 37.293 158.194 37.1836C157.966 37.0742 157.629 36.974 157.182 36.8828C156.79 36.7962 156.43 36.6937 156.102 36.5752C155.779 36.4521 155.501 36.304 155.268 36.1309C155.036 35.9577 154.856 35.7526 154.728 35.5156C154.601 35.2786 154.537 35.0052 154.537 34.6953C154.537 34.3945 154.603 34.1097 154.735 33.8408C154.867 33.5719 155.056 33.335 155.303 33.1299C155.549 32.9248 155.847 32.763 156.198 32.6445C156.554 32.526 156.95 32.4668 157.387 32.4668C158.007 32.4668 158.538 32.5716 158.98 32.7812C159.427 32.9863 159.769 33.2666 160.006 33.6221C160.243 33.973 160.361 34.3695 160.361 34.8115H158.714C158.714 34.6156 158.664 34.4333 158.563 34.2646C158.468 34.0915 158.322 33.9525 158.126 33.8477C157.93 33.7383 157.684 33.6836 157.387 33.6836C157.105 33.6836 156.87 33.7292 156.683 33.8203C156.501 33.9069 156.364 34.0208 156.273 34.1621C156.187 34.3034 156.143 34.4583 156.143 34.627C156.143 34.75 156.166 34.8617 156.212 34.9619C156.262 35.0576 156.344 35.1465 156.458 35.2285C156.572 35.306 156.727 35.3789 156.923 35.4473C157.123 35.5156 157.374 35.5817 157.675 35.6455C158.24 35.764 158.725 35.9167 159.131 36.1035C159.541 36.2858 159.855 36.5228 160.074 36.8145C160.293 37.1016 160.402 37.4661 160.402 37.9082C160.402 38.2363 160.332 38.5371 160.19 38.8105C160.054 39.0794 159.853 39.3141 159.589 39.5146C159.324 39.7106 159.008 39.8633 158.638 39.9727C158.274 40.082 157.864 40.1367 157.408 40.1367C156.738 40.1367 156.171 40.0182 155.706 39.7812C155.241 39.5397 154.888 39.2321 154.646 38.8584C154.409 38.4801 154.291 38.0882 154.291 37.6826H155.884C155.902 37.988 155.986 38.2318 156.137 38.4141C156.291 38.5918 156.483 38.7217 156.711 38.8037C156.943 38.8812 157.182 38.9199 157.429 38.9199C157.725 38.9199 157.973 38.8812 158.174 38.8037C158.374 38.7217 158.527 38.6123 158.632 38.4756C158.736 38.3343 158.789 38.1748 158.789 37.9971ZM163.708 32.6035V40H162.054V32.6035H163.708ZM161.945 30.6621C161.945 30.4115 162.027 30.2041 162.191 30.04C162.359 29.8714 162.592 29.7871 162.888 29.7871C163.18 29.7871 163.41 29.8714 163.578 30.04C163.747 30.2041 163.831 30.4115 163.831 30.6621C163.831 30.9082 163.747 31.1133 163.578 31.2773C163.41 31.4414 163.18 31.5234 162.888 31.5234C162.592 31.5234 162.359 31.4414 162.191 31.2773C162.027 31.1133 161.945 30.9082 161.945 30.6621ZM169.762 37.9971C169.762 37.833 169.721 37.6849 169.639 37.5527C169.557 37.416 169.4 37.293 169.168 37.1836C168.94 37.0742 168.602 36.974 168.156 36.8828C167.764 36.7962 167.404 36.6937 167.076 36.5752C166.752 36.4521 166.474 36.304 166.242 36.1309C166.009 35.9577 165.829 35.7526 165.702 35.5156C165.574 35.2786 165.51 35.0052 165.51 34.6953C165.51 34.3945 165.576 34.1097 165.709 33.8408C165.841 33.5719 166.03 33.335 166.276 33.1299C166.522 32.9248 166.821 32.763 167.171 32.6445C167.527 32.526 167.923 32.4668 168.361 32.4668C168.981 32.4668 169.512 32.5716 169.954 32.7812C170.4 32.9863 170.742 33.2666 170.979 33.6221C171.216 33.973 171.335 34.3695 171.335 34.8115H169.687C169.687 34.6156 169.637 34.4333 169.537 34.2646C169.441 34.0915 169.295 33.9525 169.099 33.8477C168.903 33.7383 168.657 33.6836 168.361 33.6836C168.078 33.6836 167.844 33.7292 167.657 33.8203C167.475 33.9069 167.338 34.0208 167.247 34.1621C167.16 34.3034 167.117 34.4583 167.117 34.627C167.117 34.75 167.14 34.8617 167.185 34.9619C167.235 35.0576 167.317 35.1465 167.431 35.2285C167.545 35.306 167.7 35.3789 167.896 35.4473C168.097 35.5156 168.347 35.5817 168.648 35.6455C169.213 35.764 169.699 35.9167 170.104 36.1035C170.514 36.2858 170.829 36.5228 171.047 36.8145C171.266 37.1016 171.376 37.4661 171.376 37.9082C171.376 38.2363 171.305 38.5371 171.164 38.8105C171.027 39.0794 170.826 39.3141 170.562 39.5146C170.298 39.7106 169.981 39.8633 169.612 39.9727C169.247 40.082 168.837 40.1367 168.381 40.1367C167.712 40.1367 167.144 40.0182 166.679 39.7812C166.214 39.5397 165.861 39.2321 165.62 38.8584C165.383 38.4801 165.264 38.0882 165.264 37.6826H166.857C166.875 37.988 166.96 38.2318 167.11 38.4141C167.265 38.5918 167.456 38.7217 167.684 38.8037C167.917 38.8812 168.156 38.9199 168.402 38.9199C168.698 38.9199 168.947 38.8812 169.147 38.8037C169.348 38.7217 169.5 38.6123 169.605 38.4756C169.71 38.3343 169.762 38.1748 169.762 37.9971ZM176.538 36.0693V35.9531C176.538 34.9779 176.643 34.0938 176.853 33.3008C177.067 32.5033 177.345 31.806 177.687 31.209C178.029 30.6074 178.393 30.1107 178.781 29.7188C179.173 29.3223 179.549 29.0374 179.909 28.8643L180.237 29.8076C179.972 30.0036 179.708 30.2747 179.444 30.6211C179.184 30.9674 178.945 31.3936 178.726 31.8994C178.512 32.4007 178.339 32.9886 178.206 33.6631C178.079 34.333 178.015 35.0918 178.015 35.9395V36.083C178.015 36.9307 178.079 37.6917 178.206 38.3662C178.339 39.0361 178.512 39.624 178.726 40.1299C178.945 40.6357 179.184 41.0641 179.444 41.415C179.708 41.7705 179.972 42.0531 180.237 42.2627L179.909 43.165C179.549 42.9873 179.173 42.7002 178.781 42.3037C178.393 41.9118 178.029 41.415 177.687 40.8135C177.345 40.2165 177.067 39.5215 176.853 38.7285C176.643 37.931 176.538 37.0446 176.538 36.0693ZM185.402 36.2881H182.811V34.9277H185.402C185.853 34.9277 186.218 34.8548 186.496 34.709C186.774 34.5632 186.977 34.3626 187.104 34.1074C187.236 33.8477 187.303 33.5514 187.303 33.2188C187.303 32.9043 187.236 32.6104 187.104 32.3369C186.977 32.0589 186.774 31.8356 186.496 31.667C186.218 31.4984 185.853 31.4141 185.402 31.4141H183.338V40H181.622V30.0469H185.402C186.172 30.0469 186.826 30.1836 187.364 30.457C187.906 30.7259 188.319 31.0996 188.601 31.5781C188.884 32.0521 189.025 32.5944 189.025 33.2051C189.025 33.8477 188.884 34.3991 188.601 34.8594C188.319 35.3197 187.906 35.6729 187.364 35.9189C186.826 36.165 186.172 36.2881 185.402 36.2881ZM193.555 40H191.429L191.443 38.6396H193.555C194.17 38.6396 194.685 38.5052 195.1 38.2363C195.519 37.9674 195.834 37.5824 196.043 37.0811C196.257 36.5798 196.364 35.9827 196.364 35.29V34.75C196.364 34.2122 196.303 33.736 196.18 33.3213C196.061 32.9066 195.884 32.5579 195.647 32.2754C195.414 31.9928 195.127 31.7786 194.785 31.6328C194.448 31.487 194.058 31.4141 193.616 31.4141H191.388V30.0469H193.616C194.277 30.0469 194.881 30.1585 195.428 30.3818C195.975 30.6006 196.446 30.9173 196.843 31.332C197.244 31.7467 197.552 32.2435 197.766 32.8223C197.98 33.401 198.087 34.0482 198.087 34.7637V35.29C198.087 36.0055 197.98 36.6527 197.766 37.2314C197.552 37.8102 197.244 38.307 196.843 38.7217C196.442 39.1318 195.963 39.4486 195.407 39.6719C194.856 39.8906 194.238 40 193.555 40ZM192.379 30.0469V40H190.663V30.0469H192.379ZM201.626 30.0469V40H199.91V30.0469H201.626ZM205.686 34.4014V35.7617H201.188V34.4014H205.686ZM206.254 30.0469V31.4141H201.188V30.0469H206.254ZM210.735 35.9531V36.0693C210.735 37.0309 210.626 37.9082 210.407 38.7012C210.193 39.4941 209.913 40.1914 209.566 40.793C209.225 41.3945 208.853 41.8958 208.452 42.2969C208.056 42.6979 207.675 42.9873 207.311 43.165L206.976 42.2627C207.24 42.0622 207.502 41.7865 207.762 41.4355C208.026 41.0892 208.265 40.6585 208.479 40.1436C208.698 39.6331 208.871 39.0407 208.999 38.3662C209.131 37.6917 209.197 36.9307 209.197 36.083V35.9395C209.197 35.0918 209.129 34.3307 208.992 33.6562C208.86 32.9772 208.682 32.3848 208.459 31.8789C208.236 31.3685 207.994 30.9378 207.734 30.5869C207.475 30.236 207.222 29.9626 206.976 29.7666L207.311 28.8643C207.675 29.0374 208.056 29.3245 208.452 29.7256C208.853 30.1266 209.225 30.6302 209.566 31.2363C209.913 31.8379 210.193 32.5352 210.407 33.3281C210.626 34.1211 210.735 34.9961 210.735 35.9531Z" fill="#E8DEF8"/>
</g>
</g>
<defs>
<filter id="filter0_dd_51655_5115" x="0" y="0" width="243" height="78" filterUnits="userSpaceOnUse" color-interpolation-filters="sRGB">
<feFlood flood-opacity="0" result="BackgroundImageFix"/>
<feColorMatrix in="SourceAlpha" type="matrix" values="0 0 0 0 0 0 0 0 0 0 0 0 0 0 0 0 0 0 127 0" result="hardAlpha"/>
<feOffset dy="1"/>
<feGaussianBlur stdDeviation="1.5"/>
<feColorMatrix type="matrix" values="0 0 0 0 0 0 0 0 0 0 0 0 0 0 0 0 0 0 0.3 0"/>
<feBlend mode="normal" in2="BackgroundImageFix" result="effect1_dropShadow_51655_5115"/>
<feColorMatrix in="SourceAlpha" type="matrix" values="0 0 0 0 0 0 0 0 0 0 0 0 0 0 0 0 0 0 127 0" result="hardAlpha"/>
<feMorphology radius="3" operator="dilate" in="SourceAlpha" result="effect2_dropShadow_51655_5115"/>
<feOffset dy="4"/>
<feGaussianBlur stdDeviation="4"/>
<feColorMatrix type="matrix" values="0 0 0 0 0 0 0 0 0 0 0 0 0 0 0 0 0 0 0.15 0"/>
<feBlend mode="normal" in2="effect1_dropShadow_51655_5115" result="effect2_dropShadow_51655_5115"/>
<feBlend mode="normal" in="SourceGraphic" in2="effect2_dropShadow_51655_5115" result="shape"/>
</filter>
<clipPath id="clip0_51655_5115">
<rect x="11" y="7" width="221" height="56" rx="16" fill="white"/>
</clipPath>
</defs>
</svg>
